<svg width="2164" height="2177" xmlns="http://www.w3.org/2000/svg" xmlns:xlink="http://www.w3.org/1999/xlink" xml:space="preserve" overflow="hidden"><defs><clipPath id="clip0"><path d="M2975.71 73.9053 3844.61 675.075 3008.86 1883.04 2139.96 1281.87Z" fill-rule="nonzero" clip-rule="nonzero"/></clipPath><clipPath id="clip1"><path d="M2975.71 73.9053 3844.61 675.075 3008.86 1883.04 2139.96 1281.87Z" fill-rule="evenodd" clip-rule="evenodd"/></clipPath><clipPath id="clip2"><path d="M2975.71 73.9053 3844.61 675.075 3008.86 1883.04 2139.96 1281.87Z" fill-rule="evenodd" clip-rule="evenodd"/></clipPath></defs><g transform="translate(-2016 -64)"><g><rect x="2023.5" y="149.5" width="2086" height="2088" stroke="#172C51" stroke-width="4.58333" stroke-linecap="butt" stroke-linejoin="miter" stroke-miterlimit="8" stroke-opacity="1" fill="#001F43" fill-opacity="1"/><g><g><g><path d="M3332.03 195.588C3320.54 191.078 3307.57 196.735 3303.06 208.224 3298.55 219.712 3304.21 232.682 3315.7 237.192 3735.05 401.557 3941.76 874.753 3777.4 1294.11 3613.03 1713.46 3139.84 1920.17 2720.48 1755.81 2708.99 1751.3 2696.03 1756.95 2691.52 1768.44 2687 1779.93 2692.66 1792.9 2704.15 1797.41 2797.18 1833.91 2895.88 1853.83 2995.78 1856.29L2995.78 2013.14 2716.48 2013.14C2667.12 2013.14 2627.11 2053.16 2627.11 2102.52L2671.8 2102.52C2671.8 2077.83 2691.8 2057.83 2716.48 2057.83L3319.77 2057.83C3344.45 2057.83 3364.45 2077.83 3364.45 2102.52L3409.14 2102.52C3409.14 2053.16 3369.13 2013.14 3319.77 2013.14L3040.47 2013.14 3040.47 1855.89C3515.21 1843.78 3890.26 1449.12 3878.15 974.373 3869.33 628.559 3654.15 321.699 3332.03 195.588Z" fill="#FFFFFF" fill-rule="nonzero" fill-opacity="1"/><path d="M2470.7 2124.86 3565.55 2124.86 3565.55 2169.55 2470.7 2169.55Z" fill="#FFFFFF" fill-rule="nonzero" fill-opacity="1"/><path d="M2741.76 1668.02C3112.63 1820.65 3537.01 1643.72 3689.64 1272.85 3842.27 901.97 3665.35 477.587 3294.47 324.959 2923.6 172.332 2499.21 349.255 2346.58 720.13 2192.7 1088 2366.17 1510.96 2734.04 1664.85 2736.61 1665.92 2739.18 1666.98 2741.76 1668.02ZM3047.28 984.3 3289.94 394.716C3407.13 596.033 3422.88 860.628 3330.8 1100.98ZM3313.8 1142.32C3210.01 1377.82 3012.58 1554.67 2787.65 1615.2L3030.28 1025.66ZM3005.97 967.453 2722.45 850.64C2826.24 615.137 3023.67 438.286 3248.6 377.757ZM2989.08 1008.66 2746.31 1598.24C2629.12 1396.92 2613.37 1132.33 2705.45 891.976ZM2826.42 1650.46C3053.23 1579.85 3250.19 1398.11 3355.11 1159.36L3639.28 1276.31C3499.34 1586.08 3152.74 1745.61 2826.42 1650.46ZM3656.31 1235 3372.12 1118.03C3465.67 874.481 3453.67 606.87 3342.27 397.062 3641.04 559.17 3774.94 916.454 3656.31 1235ZM3019 315.016C3083.58 315.038 3147.82 324.315 3209.77 342.565 2982.98 413.194 2786.04 594.916 2681.14 833.636L2397.21 716.801C2507.51 472.318 2750.79 315.114 3019 315.016ZM2379.97 758.003 2664.16 874.972C2570.6 1118.41 2582.6 1386.13 2694.01 1595.94 2395.23 1433.84 2261.31 1076.55 2379.94 758.003Z" fill="#FFFFFF" fill-rule="nonzero" fill-opacity="1"/></g></g></g><path d="M2325.5 992C2325.5 615.066 2635.99 309.5 3019 309.5 3402.01 309.5 3712.5 615.066 3712.5 992 3712.5 1368.93 3402.01 1674.5 3019 1674.5 2635.99 1674.5 2325.5 1368.93 2325.5 992Z" stroke="#172C51" stroke-width="4.58333" stroke-linecap="butt" stroke-linejoin="miter" stroke-miterlimit="8" stroke-opacity="1" fill="#001F43" fill-rule="evenodd" fill-opacity="1"/><g clip-path="url(#clip0)"><g clip-path="url(#clip1)"><g clip-path="url(#clip2)"><path d="M770.435 528.298C770.435 402.828 686.788 336.79 597.638 286.162 686.788 234.432 770.435 169.496 770.435 44.0249L704.398 44.0249C704.398 63.8361 701.096 82.5466 695.593 99.056L361.004 99.056C355.501 82.5466 352.199 63.8361 352.199 44.0249L286.162 44.0249C286.162 169.496 369.809 234.432 458.959 286.162 369.809 336.79 286.162 402.828 286.162 528.298 286.162 654.87 369.809 720.907 458.959 771.536 369.809 822.164 286.162 887.101 286.162 1012.57L352.199 1012.57C352.199 991.66 355.501 974.05 361.004 957.541L695.593 957.541C701.096 974.05 704.398 991.66 704.398 1012.57L770.435 1012.57C770.435 887.101 686.788 822.164 597.638 771.536 686.788 720.907 770.435 654.87 770.435 528.298ZM352.199 528.298C352.199 508.487 355.501 489.777 361.004 473.267L696.694 473.267C702.197 489.777 705.499 508.487 705.499 528.298 705.499 548.11 702.197 566.82 696.694 583.33L361.004 583.33C355.501 566.82 352.199 548.11 352.199 528.298ZM402.828 165.093 652.669 165.093C620.751 197.011 575.625 222.326 527.198 248.741 479.871 222.326 434.746 197.011 402.828 165.093ZM528.298 323.583C576.726 349.998 621.851 375.312 653.769 407.23L402.828 407.23C434.746 375.312 479.871 348.897 528.298 323.583ZM528.298 808.957C576.726 834.271 620.751 859.586 652.669 891.504L403.928 891.504C435.846 859.586 479.871 834.271 528.298 808.957ZM528.298 734.115C478.77 707.7 433.645 682.385 401.727 649.367L654.87 649.367C622.952 682.385 577.826 707.7 528.298 734.115Z" fill="#FFFFFF" fill-rule="nonzero" fill-opacity="1" transform="matrix(0.82236 0.568967 -0.790988 1.14326 2975.71 73.9053)"/></g></g></g></g></g></svg>